<?xml version="1.0" encoding="utf-8"?>
<!-- Generator: Adobe Illustrator 22.1.0, SVG Export Plug-In . SVG Version: 6.00 Build 0)  -->
<svg version="1.1" id="Capa_1" xmlns="http://www.w3.org/2000/svg" xmlns:xlink="http://www.w3.org/1999/xlink" x="0px" y="0px"
	 viewBox="0 0 715 685.7" style="enable-background:new 0 0 715 685.7;" xml:space="preserve">
<style type="text/css">
	.st0{fill:#070308;}
	.st1{opacity:0.8;fill:#070308;}
</style>
<g>
	<g>
		<path class="st0" d="M514.9,270h-40.1v35.4h42.7v33.7h34.8v-31.7C552.3,286.8,535.5,270,514.9,270z"/>
		<path class="st0" d="M517.5,444.4h-59.7v-53.2c0-19.2-15.4-34.8-34.6-35v0h-0.4h-0.7H283.8V325h-35.5v31.3v1v2.1
			c0,18.5,15,33.5,33.5,33.5h140.3v51.5H301.3v35.1h120.9h35.7h57.1c20.6,0,37.4-16.8,37.4-37.4v-27.6h-34.8V444.4z"/>
		<path class="st0" d="M422.3,539.7H284V419.3h-35.7v25.2h-59.5v-139h59.5h35.5h138.3V325h35.7v-19.6V270v-56.6
			c0-21.4-17.5-39-39-39H287.3c-21.5,0-39,17.6-39,39V270h-57.1c-20.6,0-37.4,16.8-37.4,37.4v134.8c0,20.6,16.8,37.4,37.4,37.4h57.1
			v56.6c0,21.4,17.5,39,39,39h131.5c21.5,0,39-17.6,39-39V498h-35.5V539.7z M283.8,209.8h138.3V270H283.8V209.8z"/>
	</g>
	<g>
		<path class="st0" d="M600.9,383.2v20.2h7.2v-9.1l11.1-4.8l0.1,21.4h-30.1v-28.4c0-5.6,4.6-10.3,10.3-10.3h5.1
			c1.9,0,3.6-1.5,3.6-3.6v-14c0-1.9-1.5-3.5-3.6-3.5h-0.1c-1.9,0-3.6,1.5-3.6,3.5v5.4l-11.7,4.9v-10.9c0-5.7,4.7-10.3,10.3-10.3h9.6
			c5.7,0,10.2,4.6,10.2,10.3v15.4c0,5.7-4.6,10.4-10.3,10.4h-4.7C602.5,379.7,600.9,381.3,600.9,383.2z"/>
		<path class="st0" d="M655.9,353.9v46.7c0,5.7-4.6,10.3-10.3,10.3h-9.5c-5.7,0-10.3-4.6-10.3-10.3v-46.7c0-5.7,4.6-10.3,10.3-10.3
			h9.5C651.3,343.7,655.9,348.3,655.9,353.9z M644.5,354.7c0-1.9-1.6-3.6-3.6-3.6h-0.1c-1.9,0-3.6,1.6-3.6,3.6v45
			c0,2,1.7,3.6,3.6,3.6h0.1c2,0,3.6-1.6,3.6-3.6V354.7z"/>
		<path class="st0" d="M678.4,410.7v0.2h-16v-0.2c1.3-0.6,2.3-1.8,2.3-3.4v-60.1c0-1.5-1-2.8-2.3-3.4v-0.2H676v63.6
			C676,408.8,677,410.1,678.4,410.7z"/>
		<path class="st0" d="M715,353.9v46.7c0,5.7-4.6,10.3-10.3,10.3h-9.5c-5.7,0-10.3-4.6-10.3-10.3v-46.7c0-5.7,4.6-10.3,10.3-10.3
			h9.5C710.4,343.7,715,348.3,715,353.9z M703.7,354.7c0-1.9-1.6-3.6-3.6-3.6h-0.1c-1.9,0-3.6,1.6-3.6,3.6v45c0,2,1.7,3.6,3.6,3.6
			h0.1c2,0,3.6-1.6,3.6-3.6V354.7z"/>
	</g>
	<g>
		<path class="st0" d="M23.1,361.9v-7.4c0-1.1-0.8-1.8-1.8-1.8h-6.8c-1,0-1.8,0.8-1.8,1.8v12.1l10.5,4.6v10l-10.5-4.6V403
			c0,1.1,0.9,1.8,1.8,1.8h6.8c1.1,0,1.8-0.8,1.8-1.8v-7.5l8.3-3.2v20H-0.9v-0.2c1.3-0.5,2.3-1.9,2.3-3.3v-60.3c0-1.4-1-2.8-2.3-3.3
			v-0.2h32.3v20L23.1,361.9z"/>
		<path class="st0" d="M56.3,361.5v-5.4c0-1.9-1.6-3.5-3.6-3.5h-0.1c-1.9,0-3.6,1.5-3.6,3.5v14c0,2,1.5,3.6,3.6,3.6h5
			c5.7,0,10.3,4.7,10.3,10.3v18.1c0,5.7-4.6,10.3-10.3,10.3h-9.5c-5.7,0-10.3-4.6-10.3-10.3V391l11.2,4.8v5.6c0,2,1.5,3.6,3.6,3.6
			h0.1c1.9,0,3.6-1.5,3.6-3.6v-16.6c0-1.9-1.4-3.5-3.4-3.6h-4.8c-5.7,0-10.3-4.7-10.3-10.3v-15.5c0-5.7,4.6-10.3,10.3-10.3h9.5
			c5.8,0,10.3,4.6,10.3,10.3v10.9L56.3,361.5z"/>
		<path class="st0" d="M110.1,345.2v20l-8.2-3.3v-7.4c0-1.1-0.9-1.8-1.8-1.8h-0.3c-1.1,0-1.8,0.8-1.8,1.8v54.3c0,1.5,1,2.8,2.3,3.4
			v0.2h-16v-0.2c1.3-0.6,2.4-1.8,2.4-3.4v-54.3c0-1.1-0.9-1.8-1.9-1.8h-0.2c-1.1,0-1.9,0.8-1.9,1.8v7.4l-8.2,3.3v-20H110.1z"/>
	</g>
	<path class="st0" d="M659.2,325h8.1c-9.4-67.9-40.4-130.7-89.7-180c-30.3-30.3-65.8-53.8-104.4-69.5l-2,8
		C570.2,124.5,643.5,215.6,659.2,325z"/>
	<path class="st0" d="M643.5,325h8.1c-9.3-63.8-38.7-122.6-85.1-169c-28.3-28.3-61.3-50.3-97.1-65.2l-2,8
		C559.8,137.8,628.1,222.9,643.5,325z"/>
	<path class="st0" d="M626.8,325h8.1c-9.2-59.3-36.8-114.1-80-157.4c-26.1-26.1-56.5-46.6-89.5-60.7l-2,8
		C548.6,152,611.6,230.6,626.8,325z"/>
	<g>
		<path class="st1" d="M623.8,428.8c-27.4,124-138.1,217-270.2,217s-242.8-93-270.2-217h-8.3c11.3,53.3,37.7,102.2,77.1,141.6
			c53.8,53.8,125.3,83.4,201.3,83.4c76.1,0,147.6-29.6,201.3-83.4c39.4-39.4,65.8-88.3,77.1-141.6H623.8z"/>
		<path class="st1" d="M80.3,325c15-93.5,77.1-171.6,161.1-209l-1.7-8.2c-32.2,14.1-61.9,34.2-87.5,59.8
			c-43.3,43.3-70.9,98-80,157.4H80.3z"/>
	</g>
	<g>
		<path class="st1" d="M63.6,325C78.9,223.5,146.5,138.9,238,99.5l-1.7-8.2C201,106.3,168.5,128,140.5,156
			c-46.4,46.4-75.8,105.2-85.1,169H63.6z"/>
		<path class="st1" d="M640.7,428.8C613,561.9,494.8,662.2,353.5,662.2c-141.2,0-259.5-100.4-287.1-233.5h-8.2
			C69.7,486.4,98,539.5,140.5,582c56.9,56.9,132.5,88.2,213,88.2s156.1-31.3,213-88.2c42.5-42.5,70.8-95.6,82.3-153.3H640.7z"/>
	</g>
	<g>
		<path class="st1" d="M47.9,325c15.6-109,88.4-199.8,186.9-241l-1.7-8.2c-38.3,15.7-73.4,39-103.6,69.2
			c-49.3,49.3-80.4,112.1-89.7,180H47.9z"/>
		<path class="st1" d="M656.5,428.8c-27.9,141.7-153.1,249-302.9,249s-275-107.3-302.9-249h-8.2c11.7,61.8,41.7,118.7,87.2,164.2
			c59.8,59.8,139.4,92.8,224,92.8c84.6,0,164.1-32.9,224-92.8c45.5-45.5,75.4-102.4,87.2-164.2H656.5z"/>
	</g>
	<path class="st0" d="M358.3,3.1l17.5,31.1c0.9,1.5,2.3,2.6,4.1,2.9l35,7.1c4.6,0.9,6.4,6.5,3.2,10L394,80.4c-1.2,1.3-1.7,3-1.5,4.8
		l4.1,35.5c0.5,4.7-4.2,8.1-8.5,6.2L355.5,112c-1.6-0.7-3.4-0.7-5,0l-32.5,14.8c-4.3,1.9-9-1.5-8.5-6.2l4.1-35.5
		c0.2-1.7-0.4-3.5-1.5-4.8L288,54.2c-3.2-3.5-1.4-9,3.2-10l35-7.1c1.7-0.3,3.2-1.4,4.1-2.9l17.5-31.1C350.1-1,356-1,358.3,3.1z"/>
</g>
</svg>
