<svg version="1.1" id="Capa_1" xmlns="http://www.w3.org/2000/svg" x="0" y="0" viewBox="0 0 715 685.7" xml:space="preserve"><style>.st0,.st1{fill:#070308}.st1{opacity:.8}</style><path class="st0" d="M514.9 270h-40.1v35.4h42.7v33.7h34.8v-31.7c0-20.6-16.8-37.4-37.4-37.4zm2.6 174.4h-59.7v-53.2c0-19.2-15.4-34.8-34.6-35H283.8V325h-35.5v34.4c0 18.5 15 33.5 33.5 33.5h140.3v51.5H301.3v35.1H515c20.6 0 37.4-16.8 37.4-37.4v-27.6h-34.8v29.9z"/><path class="st0" d="M422.3 539.7H284V419.3h-35.7v25.2h-59.5v-139h233.3V325h35.7V213.4c0-21.4-17.5-39-39-39H287.3c-21.5 0-39 17.6-39 39V270h-57.1c-20.6 0-37.4 16.8-37.4 37.4v134.8c0 20.6 16.8 37.4 37.4 37.4h57.1v56.6c0 21.4 17.5 39 39 39h131.5c21.5 0 39-17.6 39-39V498h-35.5v41.7zM283.8 209.8h138.3V270H283.8v-60.2zm317.1 173.4v20.2h7.2v-9.1l11.1-4.8.1 21.4h-30.1v-28.4c0-5.6 4.6-10.3 10.3-10.3h5.1c1.9 0 3.6-1.5 3.6-3.6v-14c0-1.9-1.5-3.5-3.6-3.5h-.1c-1.9 0-3.6 1.5-3.6 3.5v5.4l-11.7 4.9V354c0-5.7 4.7-10.3 10.3-10.3h9.6c5.7 0 10.2 4.6 10.2 10.3v15.4c0 5.7-4.6 10.4-10.3 10.4h-4.7c-1.8-.1-3.4 1.5-3.4 3.4zm55-29.3v46.7c0 5.7-4.6 10.3-10.3 10.3h-9.5c-5.7 0-10.3-4.6-10.3-10.3v-46.7c0-5.7 4.6-10.3 10.3-10.3h9.5c5.7.1 10.3 4.7 10.3 10.3zm-11.4.8c0-1.9-1.6-3.6-3.6-3.6h-.1c-1.9 0-3.6 1.6-3.6 3.6v45c0 2 1.7 3.6 3.6 3.6h.1c2 0 3.6-1.6 3.6-3.6v-45zm33.9 56v.2h-16v-.2c1.3-.6 2.3-1.8 2.3-3.4v-60.1c0-1.5-1-2.8-2.3-3.4v-.2H676v63.6c0 1.6 1 2.9 2.4 3.5zm36.6-56.8v46.7c0 5.7-4.6 10.3-10.3 10.3h-9.5c-5.7 0-10.3-4.6-10.3-10.3v-46.7c0-5.7 4.6-10.3 10.3-10.3h9.5c5.7.1 10.3 4.7 10.3 10.3zm-11.3.8c0-1.9-1.6-3.6-3.6-3.6h-.1c-1.9 0-3.6 1.6-3.6 3.6v45c0 2 1.7 3.6 3.6 3.6h.1c2 0 3.6-1.6 3.6-3.6v-45zm-680.6 7.2v-7.4c0-1.1-.8-1.8-1.8-1.8h-6.8c-1 0-1.8.8-1.8 1.8v12.1l10.5 4.6v10l-10.5-4.6V403c0 1.1.9 1.8 1.8 1.8h6.8c1.1 0 1.8-.8 1.8-1.8v-7.5l8.3-3.2v20H-.9v-.2c1.3-.5 2.3-1.9 2.3-3.3v-60.3c0-1.4-1-2.8-2.3-3.3v-.2h32.3v20l-8.3-3.1zm33.2-.4v-5.4c0-1.9-1.6-3.5-3.6-3.5h-.1c-1.9 0-3.6 1.5-3.6 3.5v14c0 2 1.5 3.6 3.6 3.6h5c5.7 0 10.3 4.7 10.3 10.3v18.1c0 5.7-4.6 10.3-10.3 10.3h-9.5c-5.7 0-10.3-4.6-10.3-10.3V391l11.2 4.8v5.6c0 2 1.5 3.6 3.6 3.6h.1c1.9 0 3.6-1.5 3.6-3.6v-16.6c0-1.9-1.4-3.5-3.4-3.6h-4.8c-5.7 0-10.3-4.7-10.3-10.3v-15.5c0-5.7 4.6-10.3 10.3-10.3h9.5c5.8 0 10.3 4.6 10.3 10.3v10.9l-11.6-4.8zm53.8-16.3v20l-8.2-3.3v-7.4c0-1.1-.9-1.8-1.8-1.8h-.3c-1.1 0-1.8.8-1.8 1.8v54.3c0 1.5 1 2.8 2.3 3.4v.2h-16v-.2c1.3-.6 2.4-1.8 2.4-3.4v-54.3c0-1.1-.9-1.8-1.9-1.8h-.2c-1.1 0-1.9.8-1.9 1.8v7.4l-8.2 3.3v-20h35.6zM659.2 325h8.1c-9.4-67.9-40.4-130.7-89.7-180-30.3-30.3-65.8-53.8-104.4-69.5l-2 8c99 41 172.3 132.1 188 241.5z"/><path class="st0" d="M643.5 325h8.1c-9.3-63.8-38.7-122.6-85.1-169-28.3-28.3-61.3-50.3-97.1-65.2l-2 8c92.4 39 160.7 124.1 176.1 226.2z"/><path class="st0" d="M626.8 325h8.1c-9.2-59.3-36.8-114.1-80-157.4-26.1-26.1-56.5-46.6-89.5-60.7l-2 8C548.6 152 611.6 230.6 626.8 325z"/><path class="st1" d="M623.8 428.8c-27.4 124-138.1 217-270.2 217s-242.8-93-270.2-217h-8.3c11.3 53.3 37.7 102.2 77.1 141.6 53.8 53.8 125.3 83.4 201.3 83.4 76.1 0 147.6-29.6 201.3-83.4 39.4-39.4 65.8-88.3 77.1-141.6h-8.1zM80.3 325c15-93.5 77.1-171.6 161.1-209l-1.7-8.2c-32.2 14.1-61.9 34.2-87.5 59.8-43.3 43.3-70.9 98-80 157.4h8.1z"/><path class="st1" d="M63.6 325C78.9 223.5 146.5 138.9 238 99.5l-1.7-8.2c-35.3 15-67.8 36.7-95.8 64.7-46.4 46.4-75.8 105.2-85.1 169h8.2zm577.1 103.8C613 561.9 494.8 662.2 353.5 662.2 212.3 662.2 94 561.8 66.4 428.7h-8.2C69.7 486.4 98 539.5 140.5 582c56.9 56.9 132.5 88.2 213 88.2s156.1-31.3 213-88.2c42.5-42.5 70.8-95.6 82.3-153.3h-8.1z"/><path class="st1" d="M47.9 325c15.6-109 88.4-199.8 186.9-241l-1.7-8.2c-38.3 15.7-73.4 39-103.6 69.2-49.3 49.3-80.4 112.1-89.7 180h8.1zm608.6 103.8c-27.9 141.7-153.1 249-302.9 249s-275-107.3-302.9-249h-8.2c11.7 61.8 41.7 118.7 87.2 164.2 59.8 59.8 139.4 92.8 224 92.8s164.1-32.9 224-92.8c45.5-45.5 75.4-102.4 87.2-164.2h-8.4z"/><path class="st0" d="M358.3 3.1l17.5 31.1c.9 1.5 2.3 2.6 4.1 2.9l35 7.1c4.6.9 6.4 6.5 3.2 10L394 80.4c-1.2 1.3-1.7 3-1.5 4.8l4.1 35.5c.5 4.7-4.2 8.1-8.5 6.2L355.5 112c-1.6-.7-3.4-.7-5 0L318 126.8c-4.3 1.9-9-1.5-8.5-6.2l4.1-35.5c.2-1.7-.4-3.5-1.5-4.8L288 54.2c-3.2-3.5-1.4-9 3.2-10l35-7.1c1.7-.3 3.2-1.4 4.1-2.9l17.5-31.1c2.3-4.1 8.2-4.1 10.5 0z"/></svg>